<svg id="Layer_1" data-name="Layer 1" xmlns="http://www.w3.org/2000/svg" viewBox="0 0 20 19.96"><defs><style>.cls-1{fill:#c37c7d;}</style></defs><path class="cls-1" d="M21.6,11.06a1.05,1.05,0,0,0-.86-.17A2.65,2.65,0,0,1,20,11a3,3,0,0,1-3-2.94s0-.13,0-.17a1,1,0,0,0-1-1,.77.77,0,0,0-.3,0A2.79,2.79,0,0,1,15,7a3,3,0,0,1-3-3,2.88,2.88,0,0,1,.1-.72,1,1,0,0,0-.73-1.21,1.3,1.3,0,0,0-.34,0A10,10,0,1,0,22,12a.92.92,0,0,0,0-.16A1,1,0,0,0,21.6,11.06ZM8.5,6A1.5,1.5,0,1,1,7,7.5,1.5,1.5,0,0,1,8.5,6Zm-2,8A1.5,1.5,0,1,1,8,12.5,1.5,1.5,0,0,1,6.5,14Zm3,4A1.5,1.5,0,1,1,11,16.5,1.5,1.5,0,0,1,9.5,18ZM12,11.5A1.5,1.5,0,1,1,13.5,13,1.5,1.5,0,0,1,12,11.5ZM15.5,18A1.5,1.5,0,1,1,17,16.5,1.5,1.5,0,0,1,15.5,18Z" transform="translate(-2 -2.04)"/></svg>